<?xml version="1.0" encoding="utf-8"?>
<!-- Generator: Adobe Illustrator 22.0.1, SVG Export Plug-In . SVG Version: 6.00 Build 0)  -->
<svg version="1.1" id="Calque_1" xmlns="http://www.w3.org/2000/svg" xmlns:xlink="http://www.w3.org/1999/xlink" x="0px" y="0px"
	 viewBox="0 0 169.9 49.4" style="enable-background:new 0 0 169.9 49.4;" xml:space="preserve">
<g>
	<g>
		<defs>
			<path id="SVGID_1_" d="M1.4,0.9C0.5,1.5,0,2.2,0,3.1v43.2c0,0.8,0.5,1.6,1.4,2.2c1,0.6,2.1,0.9,3.4,0.9c1.3,0,2.5-0.3,3.4-0.9
				l34.1-21.6c1-0.6,1.4-1.3,1.4-2.2s-0.5-1.6-1.4-2.2L8.3,0.9C7.3,0.3,6.2,0,4.9,0C3.6,0,2.4,0.3,1.4,0.9L1.4,0.9L1.4,0.9z"/>
		</defs>
		<use xlink:href="#SVGID_1_"  style="overflow:visible;fill:#CACDE0;"/>
		<clipPath id="SVGID_2_">
			<use xlink:href="#SVGID_1_"  style="overflow:visible;"/>
		</clipPath>
	</g>
	<g>
		<defs>
			<path id="SVGID_3_" d="M127.4,0.9c-1,0.6-1.4,1.3-1.4,2.2v43.2c0,0.8,0.5,1.6,1.4,2.2c1,0.6,2.1,0.9,3.4,0.9s2.5-0.3,3.4-0.9
				l34.1-21.6c1-0.6,1.4-1.3,1.4-2.2c0-0.8-0.5-1.6-1.4-2.2L134.3,0.9c-1-0.6-2.1-0.9-3.4-0.9S128.4,0.3,127.4,0.9L127.4,0.9
				L127.4,0.9z"/>
		</defs>
		<use xlink:href="#SVGID_3_"  style="overflow:visible;fill:#D13F7E;"/>
		<clipPath id="SVGID_4_">
			<use xlink:href="#SVGID_3_"  style="overflow:visible;"/>
		</clipPath>
	</g>
</g>
</svg>
